<svg width="24" height="24" viewBox="0 0 24 24" fill="none" xmlns="http://www.w3.org/2000/svg">
<g id="&#230;&#139;&#150;&#229;&#138;&#168;">
<rect id="Rectangle 1552" width="24" height="24" rx="4" fill="currentColor"/>
<g id="Vector">
<path d="M11.1766 6.5C11.1766 6.22386 11.4004 6 11.6766 6H12.2725C12.5486 6 12.7725 6.22386 12.7725 6.5V18.2675C12.7725 18.5437 12.5486 18.7675 12.2725 18.7675H11.6766C11.4004 18.7675 11.1766 18.5437 11.1766 18.2675V6.5Z" fill="white"/>
<path d="M5.14645 12.4638C4.95118 12.2685 4.95118 11.9519 5.14645 11.7567L8.45335 8.44978C8.76833 8.13479 9.3069 8.35788 9.3069 8.80333V15.4171C9.3069 15.8626 8.76833 16.0857 8.45335 15.7707L5.14645 12.4638Z" fill="white"/>
<path d="M18.8025 12.4638C18.9978 12.2685 18.9978 11.9519 18.8025 11.7567L15.4956 8.44978C15.1807 8.13479 14.6421 8.35788 14.6421 8.80333V15.4171C14.6421 15.8626 15.1807 16.0857 15.4956 15.7707L18.8025 12.4638Z" fill="white"/>
</g>
</g>
</svg>
