<?xml version="1.0" encoding="UTF-8"?>
<svg width="24px" height="24px" viewBox="0 0 24 24" version="1.1" xmlns="http://www.w3.org/2000/svg" xmlns:xlink="http://www.w3.org/1999/xlink">
    <title>用户</title>
    <g id="页面-1" stroke="none" stroke-width="1" fill="none" fill-rule="evenodd">
        <g id="首页" transform="translate(-1532.000000, -32.000000)">
            <g id="标题" transform="translate(10.000000, 10.000000)">
                <g id="当前用户" transform="translate(1522.000000, 21.000000)">
                    <g id="用户" transform="translate(0.000000, 1.000000)">
                        <rect id="矩形" stroke="#979797" fill="#D8D8D8" opacity="0" x="0.5" y="0.5" width="23" height="23"></rect>
                        <path d="M9.68536327,13.6984021 C5.85794727,13.6984021 3,16.1783466 3,19.7797945 L3,20.1678891 C3,22.0504443 6.06263483,22.0504443 9.94072909,22.0504443 L14.0592709,22.0504443 C17.7833559,22.0504443 21,22.0504443 21,20.1678891 L21,19.7797945 C21,16.1783466 18.1418333,13.6984021 14.3146367,13.6984021 L9.68536327,13.6984021 Z M11.793667,12.7506527 C14.8253684,12.7506527 17.2921496,10.4293247 17.2921496,7.57444879 C17.2921496,4.72110863 14.8253684,2.4 11.793667,2.4 C8.76372079,2.4 6.29672017,4.72132802 6.29672017,7.57444879 C6.29672017,10.4293247 8.76372079,12.7506527 11.793667,12.7506527 Z" id="形状" fill="#FFFFFF"></path>
                    </g>
                </g>
            </g>
        </g>
    </g>
</svg>